<?xml version="1.0" encoding="UTF-8" standalone="no"?>
<!DOCTYPE svg PUBLIC "-//W3C//DTD SVG 1.1//EN" "http://www.w3.org/Graphics/SVG/1.1/DTD/svg11.dtd">
<svg width="100%" height="100%" viewBox="0 0 24 24" version="1.1" xmlns="http://www.w3.org/2000/svg" xmlns:xlink="http://www.w3.org/1999/xlink" xml:space="preserve" xmlns:serif="http://www.serif.com/" style="fill-rule:evenodd;clip-rule:evenodd;stroke-linejoin:round;stroke-miterlimit:2;">
    <path d="M9.12,0.35L9.39,1.44C8.328,1.702 7.311,2.122 6.375,2.688L5.797,1.724C6.829,1.101 7.949,0.638 9.12,0.35ZM14.88,0.35L14.61,1.44C15.672,1.702 16.689,2.122 17.625,2.688L18.206,1.724C17.173,1.101 16.052,0.638 14.88,0.35ZM1.725,5.797C1.102,6.829 0.639,7.949 0.351,9.119L1.441,9.389C1.703,8.327 2.124,7.31 2.69,6.374L1.725,5.797ZM1.125,11.999C1.125,11.453 1.165,10.908 1.247,10.369L0.135,10.201C-0.045,11.393 -0.045,12.605 0.135,13.797L1.247,13.628C1.166,13.089 1.125,12.545 1.125,12L1.125,11.999ZM18.203,22.274L17.625,21.31C16.69,21.875 15.675,22.295 14.614,22.557L14.884,23.648C16.053,23.36 17.172,22.897 18.203,22.274ZM22.875,12C22.875,12.546 22.835,13.091 22.753,13.63L23.865,13.798C24.045,12.606 24.045,11.394 23.865,10.202L22.753,10.371C22.835,10.91 22.875,11.455 22.875,12.001L22.875,12ZM23.649,14.88L22.559,14.61C22.297,15.672 21.877,16.689 21.311,17.625L22.275,18.206C22.898,17.173 23.361,16.052 23.649,14.88ZM13.629,22.755C12.549,22.917 11.451,22.917 10.371,22.755L10.201,23.867C11.393,24.047 12.606,24.047 13.798,23.867L13.629,22.755ZM20.754,18.452C20.105,19.33 19.329,20.106 18.45,20.754L19.118,21.66C20.087,20.947 20.944,20.092 21.66,19.125L20.754,18.452ZM18.45,3.245C19.329,3.893 20.106,4.67 20.754,5.549L21.66,4.874C20.946,3.907 20.092,3.053 19.125,2.339L18.45,3.245ZM3.246,5.549C3.894,4.67 4.671,3.893 5.55,3.245L4.875,2.339C3.908,3.053 3.054,3.907 2.34,4.874L3.246,5.549ZM22.275,5.797L21.311,6.374C21.876,7.309 22.296,8.324 22.558,9.385L23.649,9.115C23.361,7.946 22.897,6.827 22.275,5.797ZM10.371,1.246C11.451,1.084 12.549,1.084 13.629,1.246L13.8,0.134C12.608,-0.046 11.395,-0.046 10.203,0.134L10.371,1.246ZM3.823,21.957L1.5,22.5L2.042,20.177L0.947,19.92L0.405,22.243C0.385,22.327 0.375,22.413 0.375,22.5C0.375,23.117 0.883,23.625 1.5,23.625C1.587,23.625 1.673,23.615 1.757,23.595L4.078,23.063L3.823,21.957ZM1.181,18.916L2.276,19.171L2.651,17.561C2.104,16.642 1.696,15.647 1.441,14.609L0.351,14.879C0.596,15.873 0.967,16.832 1.457,17.731L1.181,18.916ZM6.431,21.353L4.821,21.728L5.076,22.823L6.261,22.548C7.16,23.038 8.118,23.409 9.112,23.654L9.382,22.563C8.346,22.305 7.355,21.894 6.439,21.346L6.431,21.353ZM12,2.25C6.653,2.253 2.255,6.653 2.255,12C2.255,13.835 2.773,15.634 3.75,17.188L2.812,21.188L6.812,20.25C8.368,21.23 10.169,21.75 12.008,21.75C17.357,21.75 21.758,17.349 21.758,12C21.758,6.651 17.357,2.25 12.008,2.25C12.005,2.25 12.003,2.25 12,2.25Z" style="fill:white;fill-rule:nonzero;"/>
</svg>
